HIERARCHY
ROOT Hips
{
	OFFSET 0.00000 0.00000 0.00000
	CHANNELS 6 Xposition Yposition Zposition Zrotation Yrotation Xrotation 
	JOINT LHipJoint
	{
		OFFSET 0 0 0
		CHANNELS 3 Zrotation Yrotation Xrotation
		JOINT LeftHip
		{
			OFFSET 1.56857 -1.73443 1.15205
			CHANNELS 3 Zrotation Yrotation Xrotation
			JOINT LeftKnee
			{
				OFFSET 2.39362 -6.57643 0.00000
				CHANNELS 3 Zrotation Yrotation Xrotation
				JOINT LeftAnkle
				{
					OFFSET 2.50952 -6.89485 0.00000
					CHANNELS 3 Zrotation Yrotation Xrotation
					JOINT LeftToe
					{
						OFFSET 0.17171 -0.47178 1.88682
						CHANNELS 3 Zrotation Yrotation Xrotation
						End Site
						{
							OFFSET 0.00000 -0.00000 0.98146
						}
					}
				}
			}
		}
	}
	JOINT RHipJoint
	{
		OFFSET 0 0 0
		CHANNELS 3 Zrotation Yrotation Xrotation
		JOINT RightHip
		{
			OFFSET -1.28153 -1.73443 1.15205
			CHANNELS 3 Zrotation Yrotation Xrotation
			JOINT RightKnee
			{
				OFFSET -2.26861 -6.23296 0.00000
				CHANNELS 3 Zrotation Yrotation Xrotation
				JOINT RightAnkle
				{
					OFFSET -2.54143 -6.98254 0.00000
					CHANNELS 3 Zrotation Yrotation Xrotation
					JOINT RightToe
					{
						OFFSET -0.23309 -0.64041 1.93119
						CHANNELS 3 Zrotation Yrotation Xrotation
						End Site
						{
							OFFSET -0.00000 -0.00000 1.02013
						}
					}
				}
			}
		}
	}
	JOINT lowerback
	{
		OFFSET 0 0 0
		CHANNELS 3 Zrotation Yrotation Xrotation
		JOINT Chest
		{
			OFFSET -0.07096 2.10460 -0.27878
			CHANNELS 3 Zrotation Yrotation Xrotation
			JOINT Chest2
			{
				OFFSET -0.00826 2.13662 -0.08279
				CHANNELS 3 Zrotation Yrotation Xrotation
				JOINT lowerneck
				{
					OFFSET 0 0 0
					CHANNELS 3 Zrotation Yrotation Xrotation
					JOINT Neck
					{
						OFFSET 0.03239 1.77799 0.24435
						CHANNELS 3 Zrotation Yrotation Xrotation
						JOINT Head
						{
							OFFSET 0.01026 1.74194 -0.49664
							CHANNELS 3 Zrotation Yrotation Xrotation
							End Site
							{
								OFFSET 0.00170 1.83057 -0.19653
							}
						}
					}
				}
				JOINT LeftCollar
				{
					OFFSET 0 0 0
					CHANNELS 3 Zrotation Yrotation Xrotation
					JOINT LeftShoulder
					{
						OFFSET 3.19178 1.35907 -0.31412
CHANNELS 3 Zrotation Xrotation Yrotation
						JOINT LeftElbow
						{
OFFSET 0 -4.852470 -0.000000
CHANNELS 3 Zrotation Xrotation Yrotation
							JOINT LeftWrist
							{
OFFSET 0 -3.555840 0.000000
CHANNELS 3 Zrotation Xrotation Yrotation
								JOINT lhand
								{
									OFFSET 0 0 0
CHANNELS 3 Zrotation Xrotation Yrotation
									JOINT LFingers
									{
OFFSET 0 -0.693200 0.000000
CHANNELS 3 Zrotation Xrotation Yrotation
										End Site
										{
OFFSET 0 -0.558880 0.000000
										}
									}
								}
								JOINT LThumb
								{
OFFSET 0 0.000000 0.000000
CHANNELS 3 Zrotation Xrotation Yrotation
									End Site
									{
OFFSET 0 -0.567410 0.567410
									}
								}
							}
						}
					}
				}
				JOINT RightCollar
				{
					OFFSET 0 0 0
					CHANNELS 3 Zrotation Yrotation Xrotation
					JOINT RightShoulder
					{
						OFFSET -3.28999 1.24191 -0.26899
CHANNELS 3 Zrotation Xrotation Yrotation
						JOINT RightElbow
						{
OFFSET 0 -4.644620 0.000000
CHANNELS 3 Zrotation Xrotation Yrotation
							JOINT RightWrist
							{
OFFSET 0 -3.407030 0.000000
CHANNELS 3 Zrotation Xrotation Yrotation
								JOINT rhand
								{
									OFFSET 0 0 0
CHANNELS 3 Zrotation Xrotation Yrotation
									JOINT RFingers
									{
OFFSET 0 -0.619580 0.000000
CHANNELS 3 Zrotation Xrotation Yrotation
										End Site
										{
OFFSET 0 -0.499520 0.000000
										}
									}
								}
								JOINT RThumb
								{
OFFSET 0 0.000000 0.000000
CHANNELS 3 Zrotation Xrotation Yrotation
									End Site
									{
OFFSET 0 -0.507150 0.507150
									}
								}
							}
						}
					}
				}
			}
		}
	}
}
MOTION
Frames: 9
Frame Time: 0.008333333333333333
-12.191840 16.010273 0.909315 100.237309 75.375484 100.473863 0.000000 0.000000 0.000000 -35.767569 6.233422 24.871526 0.362659 3.865931 10.700181 1.426465 -4.928597 -21.503464 1.772531 -8.374980 -23.859049 0.000000 0.000000 0.000000 -2.820935 5.347694 -32.753102 -1.505430 -7.746934 21.949325 -0.309720 1.416329 -10.102953 -0.656289 -5.180443 14.424051 -18.320449 -1.315866 9.135044 -1.655880 -3.185857 3.024558 8.770752 -1.598234 -0.927412 4.532746 3.978233 -24.027479 -2.960949 4.516728 15.795366 -1.096672 2.056186 9.053853 0.000000 0.000000 0.000000 12.257078 -19.932249 -41.035386 28.930880 -39.959152 10.716281 24.643524 -16.493175 27.003913 0.000000 0.000000 0.000000 -7.125000 0.000000 0.000000 -3.246491 0.742776 -3.209421 0.000000 0.000000 0.000000 -5.358596 18.499488 15.275821 -15.422464 -24.731248 -3.400780 -10.784485 9.116331 31.075626 0.000000 0.000000 0.000000 7.125000 0.000000 0.000000 23.935777 59.881757 -9.003322
-11.885549 15.996272 0.929987 99.982025 76.076721 100.099891 0.000000 0.000000 0.000000 -35.030615 6.101853 25.557203 0.441439 4.262589 11.816765 1.329787 -4.544884 -20.778890 1.964274 -8.791010 -25.143819 0.000000 0.000000 0.000000 -1.840180 6.036352 -32.378220 -1.678204 -8.160730 23.203582 -0.227989 -0.163977 -9.080915 -0.841467 -5.849907 16.349880 -17.546030 -1.274804 9.160496 -1.432348 -3.090415 2.960712 8.587006 -1.540484 -1.079384 4.628855 4.035583 -24.180208 -3.145280 4.601851 16.026666 -1.160471 2.078571 9.171171 0.000000 0.000000 0.000000 12.329824 -19.305418 -41.678426 29.018582 -40.037172 10.772694 25.016868 -17.210436 26.713469 0.000000 0.000000 0.000000 -7.125000 0.000000 0.000000 -2.983875 0.969052 -2.936978 0.000000 0.000000 0.000000 -5.372479 18.306222 15.106716 -15.110030 -24.299134 -3.271112 -10.812017 9.814027 31.570368 0.000000 0.000000 0.000000 7.125000 0.000000 0.000000 24.325144 60.334459 -9.425323
-11.596783 15.990611 0.961285 100.265230 77.232885 100.438805 0.000000 0.000000 0.000000 -33.695361 5.723973 25.859328 0.556936 4.775478 13.270176 1.179628 -4.201296 -19.559838 2.139420 -9.149419 -26.264704 0.000000 0.000000 0.000000 -0.445191 6.990744 -32.308201 -1.872133 -8.592836 24.530775 -0.189491 -0.885911 -8.591230 -0.997112 -6.353937 17.815170 -16.422260 -1.280799 9.579015 -1.001930 -3.146239 2.578537 8.473308 -1.503752 -1.766384 4.684501 4.148338 -23.975296 -3.413560 4.809599 16.102446 -1.233429 2.150550 9.180696 0.000000 0.000000 0.000000 11.886050 -18.049952 -41.518733 29.112243 -40.120191 10.832955 25.054050 -17.242536 26.894987 0.000000 0.000000 0.000000 -7.125000 0.000000 0.000000 -2.987159 0.770269 -2.950751 0.000000 0.000000 0.000000 -5.452013 18.406235 15.029278 -14.927913 -24.045434 -3.196573 -10.843630 10.562502 31.761346 0.000000 0.000000 0.000000 7.125000 0.000000 0.000000 24.457056 60.513713 -9.585179
-11.298149 16.002286 0.989466 100.660139 78.394057 100.841152 0.000000 0.000000 0.000000 -32.354599 5.405455 25.994091 0.711274 5.384340 15.009364 1.001364 -3.634799 -18.034911 2.205717 -9.281744 -26.680849 0.000000 0.000000 0.000000 0.987107 7.892713 -32.100012 -2.073099 -9.015050 25.843621 -0.149183 -0.929488 -7.684065 -0.889870 -6.010943 16.816731 -15.171519 -1.329250 9.470581 -0.670795 -3.085335 2.555094 8.128238 -1.480168 -1.807547 4.851479 4.225693 -23.944642 -3.605036 4.898480 15.996341 -1.313871 2.181153 9.152091 0.000000 0.000000 0.000000 11.390934 -17.042516 -41.043038 29.252667 -40.244131 10.923602 25.152706 -16.781226 26.952475 0.000000 0.000000 0.000000 -7.125000 0.000000 0.000000 -2.936479 0.688744 -2.904856 0.000000 0.000000 0.000000 -5.295944 17.874744 14.638271 -14.622887 -23.617879 -3.073477 -10.701642 11.430519 31.919616 0.000000 0.000000 0.000000 7.125000 0.000000 0.000000 24.743139 60.621969 -9.769779
-10.989187 16.029273 1.009810 99.838652 79.370814 99.832384 0.000000 0.000000 0.000000 -31.284546 5.393861 25.985895 0.916706 6.098224 17.070412 0.808744 -3.064052 -16.227745 2.016584 -8.899777 -25.482724 0.000000 0.000000 0.000000 2.334213 8.722644 -31.518107 -2.284058 -9.433653 27.161972 -0.119630 -0.603029 -6.781108 -0.957233 -6.229147 17.450899 -14.028099 -1.263713 9.463964 -0.465393 -2.890229 2.610409 7.693999 -1.389366 -1.849995 5.032155 4.283505 -24.088425 -3.753173 4.940946 16.006000 -1.385973 2.193326 9.190860 0.000000 0.000000 0.000000 11.056211 -15.942843 -40.877935 29.400249 -40.373679 11.019078 25.037233 -16.340881 26.780425 0.000000 0.000000 0.000000 -7.125000 0.000000 0.000000 -2.981059 0.894349 -2.938153 0.000000 0.000000 0.000000 -5.113179 17.299505 14.481922 -14.358203 -23.244457 -2.968013 -10.528819 12.042292 31.899273 0.000000 0.000000 0.000000 7.125000 0.000000 0.000000 24.904584 60.562680 -9.802730
-10.684519 16.058773 1.027613 98.771628 80.137040 98.457252 0.000000 0.000000 0.000000 -30.242712 5.654559 25.557822 1.223375 7.006780 19.739068 0.588889 -2.598745 -13.812436 1.673282 -8.126417 -23.111295 0.000000 0.000000 0.000000 3.687895 8.956635 -30.857587 -2.544789 -9.916508 28.708822 -0.144034 -0.348733 -7.285661 -0.763267 -5.538256 15.460271 -13.284549 -1.196156 9.820205 -0.170281 -2.795406 2.519307 7.606663 -1.320984 -2.195182 5.078492 4.374860 -23.978713 -3.953806 5.103903 16.079541 -1.439555 2.250588 9.213043 0.000000 0.000000 0.000000 10.318690 -14.193187 -40.219367 29.718559 -40.650821 11.225888 24.808921 -15.673942 27.008118 0.000000 0.000000 0.000000 -7.125000 0.000000 0.000000 -3.148743 0.703403 -3.114591 0.000000 0.000000 0.000000 -5.278236 16.759255 14.545925 -13.945800 -22.656762 -2.807492 -10.747318 13.158195 30.923498 0.000000 0.000000 0.000000 7.125000 0.000000 0.000000 23.851881 59.734820 -8.888323
-10.383891 16.090114 1.042303 97.993723 80.876866 97.393839 0.000000 0.000000 0.000000 -29.088714 5.912977 24.751296 1.629697 8.035551 22.828901 0.368392 -2.003718 -10.875236 0.953971 -6.151436 -17.246141 0.000000 0.000000 0.000000 5.074403 8.996443 -30.022371 -2.765423 -10.305145 29.970755 -0.199328 -0.468894 -8.610111 -0.398881 -4.043807 11.201507 -12.497844 -1.227237 10.083422 0.113015 -2.804355 2.448098 7.484424 -1.312051 -2.445119 5.117488 4.534966 -23.753803 -4.105525 5.360221 16.176501 -1.462206 2.358152 9.227094 0.000000 0.000000 0.000000 9.744379 -12.518186 -39.801580 29.740424 -40.669645 11.240112 24.930473 -15.615226 27.051883 0.000000 0.000000 0.000000 -7.125000 0.000000 0.000000 -3.082607 0.631645 -3.052903 0.000000 0.000000 0.000000 -5.473309 16.007475 14.893622 -13.578952 -22.129517 -2.667556 -10.983524 14.252857 30.578252 0.000000 0.000000 0.000000 7.125000 0.000000 0.000000 23.325754 59.476369 -8.531659
-10.086030 16.124574 1.055051 96.775233 81.514564 95.933732 0.000000 0.000000 0.000000 -28.020329 6.247499 23.513895 2.136936 9.139811 26.237731 0.167906 -0.745897 -7.450679 0.437009 -4.216422 -11.690353 0.000000 0.000000 0.000000 6.307359 8.868617 -28.843257 -2.827504 -10.410458 30.316362 -0.222937 -0.246157 -9.011865 -0.472821 -4.403020 12.214454 -11.714589 -1.297366 9.722985 0.246171 -2.737472 2.794813 7.152443 -1.328314 -1.924901 5.337042 4.750980 -23.839337 -4.258447 5.603613 16.023758 -1.512482 2.467091 9.211663 0.000000 0.000000 0.000000 9.426832 -11.747881 -39.473300 29.278774 -40.266809 10.940541 24.954997 -15.647257 26.987392 0.000000 0.000000 0.000000 -7.125000 0.000000 0.000000 -3.059025 0.694193 -3.026052 0.000000 0.000000 0.000000 -5.470991 14.654922 15.605322 -13.525367 -22.052151 -2.647338 -10.374325 14.037215 31.787172 0.000000 0.000000 0.000000 7.125000 0.000000 0.000000 24.971294 60.424603 -9.752518
-9.796476 16.159268 1.071466 94.275155 82.125593 93.121838 0.000000 0.000000 0.000000 -27.050976 6.582603 22.137105 2.739783 10.254623 29.811678 0.036554 1.256573 -4.231079 0.165644 -2.576000 -7.102645 0.000000 0.000000 0.000000 7.543710 8.992732 -27.446607 -2.870074 -10.481657 30.550928 -0.249587 0.480507 -9.275503 -0.673809 -5.248989 14.620105 -10.922107 -1.133184 10.132451 0.318371 -2.503641 2.682710 6.780766 -1.184586 -2.356998 5.515079 4.776833 -23.635656 -4.280167 5.602738 16.194913 -1.551106 2.477951 9.242867 0.000000 0.000000 0.000000 9.189438 -10.206828 -39.735387 28.779073 -39.823261 10.619060 25.030059 -15.716030 27.079425 0.000000 0.000000 0.000000 -7.125000 0.000000 0.000000 -3.027287 0.581397 -3.000606 0.000000 0.000000 0.000000 -5.342492 14.233651 16.461043 -13.676593 -22.270521 -2.704301 -10.222456 13.523654 31.827671 0.000000 0.000000 0.000000 7.125000 0.000000 0.000000 25.164637 60.424731 -9.834108
